<svg width="32" height="32" viewBox="0 0 32 32" fill="none" xmlns="http://www.w3.org/2000/svg">
  <!-- Ant body gradient -->
  <defs>
    <linearGradient id="antGradient" x1="0%" y1="0%" x2="100%" y2="100%">
      <stop offset="0%" style="stop-color:#3b82f6;stop-opacity:1" />
      <stop offset="50%" style="stop-color:#8b5cf6;stop-opacity:1" />
      <stop offset="100%" style="stop-color:#06b6d4;stop-opacity:1" />
    </linearGradient>
    <linearGradient id="antBodyGradient" x1="0%" y1="0%" x2="100%" y2="100%">
      <stop offset="0%" style="stop-color:#1e40af;stop-opacity:1" />
      <stop offset="100%" style="stop-color:#7c3aed;stop-opacity:1" />
    </linearGradient>
  </defs>
  
  <!-- Ant head -->
  <ellipse cx="16" cy="8" rx="4" ry="3.5" fill="url(#antGradient)"/>
  
  <!-- Ant thorax -->
  <ellipse cx="16" cy="15" rx="3.5" ry="4" fill="url(#antBodyGradient)"/>
  
  <!-- Ant abdomen -->
  <ellipse cx="16" cy="23" rx="4.5" ry="5" fill="url(#antGradient)"/>
  
  <!-- Antennae -->
  <path d="M14 6 L11 3" stroke="url(#antGradient)" stroke-width="1.5" stroke-linecap="round"/>
  <path d="M18 6 L21 3" stroke="url(#antGradient)" stroke-width="1.5" stroke-linecap="round"/>
  <circle cx="11" cy="3" r="1" fill="url(#antGradient)"/>
  <circle cx="21" cy="3" r="1" fill="url(#antGradient)"/>
  
  <!-- Eyes -->
  <circle cx="14" cy="7.5" r="1" fill="white"/>
  <circle cx="18" cy="7.5" r="1" fill="white"/>
  <circle cx="14" cy="7.5" r="0.5" fill="#1e40af"/>
  <circle cx="18" cy="7.5" r="0.5" fill="#1e40af"/>
  
  <!-- Legs -->
  <!-- Front legs -->
  <path d="M13 13 L8 11" stroke="url(#antBodyGradient)" stroke-width="1.5" stroke-linecap="round"/>
  <path d="M19 13 L24 11" stroke="url(#antBodyGradient)" stroke-width="1.5" stroke-linecap="round"/>
  
  <!-- Middle legs -->
  <path d="M12 16 L6 18" stroke="url(#antBodyGradient)" stroke-width="1.5" stroke-linecap="round"/>
  <path d="M20 16 L26 18" stroke="url(#antBodyGradient)" stroke-width="1.5" stroke-linecap="round"/>
  
  <!-- Back legs -->
  <path d="M13 21 L8 25" stroke="url(#antBodyGradient)" stroke-width="1.5" stroke-linecap="round"/>
  <path d="M19 21 L24 25" stroke="url(#antBodyGradient)" stroke-width="1.5" stroke-linecap="round"/>
  
  <!-- Leg joints -->
  <circle cx="8" cy="11" r="0.8" fill="url(#antGradient)"/>
  <circle cx="24" cy="11" r="0.8" fill="url(#antGradient)"/>
  <circle cx="6" cy="18" r="0.8" fill="url(#antGradient)"/>
  <circle cx="26" cy="18" r="0.8" fill="url(#antGradient)"/>
  <circle cx="8" cy="25" r="0.8" fill="url(#antGradient)"/>
  <circle cx="24" cy="25" r="0.8" fill="url(#antGradient)"/>
</svg>